<svg xmlns="http://www.w3.org/2000/svg" style="display:none">
<!-- Custom SVG sprite. Consistent 24x24 viewBox. stroke=currentColor. -->
<symbol id="arrow-right" viewBox="0 0 24 24" fill="none" stroke="currentColor" stroke-width="2" stroke-linecap="square" stroke-linejoin="miter"><path d="M5 12h14M13 6l6 6-6 6"/></symbol>
<symbol id="arrow-down" viewBox="0 0 24 24" fill="none" stroke="currentColor" stroke-width="2" stroke-linecap="square" stroke-linejoin="miter"><path d="M12 5v14M6 13l6 6 6-6"/></symbol>
<symbol id="arrow-up-right-from-square" viewBox="0 0 24 24" fill="none" stroke="currentColor" stroke-width="2" stroke-linecap="square" stroke-linejoin="miter"><path d="M15 3h6v6M10 14L21 3M19 14v6a1 1 0 0 1-1 1H5a1 1 0 0 1-1-1V7a1 1 0 0 1 1-1h6"/></symbol>
<symbol id="check" viewBox="0 0 24 24" fill="none" stroke="currentColor" stroke-width="2.5" stroke-linecap="square" stroke-linejoin="miter"><path d="M4 12l5 5L20 6"/></symbol>
<symbol id="times" viewBox="0 0 24 24" fill="none" stroke="currentColor" stroke-width="2.5" stroke-linecap="square" stroke-linejoin="miter"><path d="M5 5l14 14M19 5L5 19"/></symbol>
<symbol id="chart-line" viewBox="0 0 24 24" fill="none" stroke="currentColor" stroke-width="2" stroke-linecap="square" stroke-linejoin="miter"><path d="M3 3v18h18M7 15l4-5 4 3 5-7"/></symbol>
<symbol id="cloud" viewBox="0 0 24 24" fill="none" stroke="currentColor" stroke-width="2" stroke-linecap="square" stroke-linejoin="miter"><path d="M17 18H7a4 4 0 0 1-.9-7.9 6 6 0 0 1 11.7 1.2A4 4 0 0 1 17 18z"/></symbol>
<symbol id="code" viewBox="0 0 24 24" fill="none" stroke="currentColor" stroke-width="2" stroke-linecap="square" stroke-linejoin="miter"><path d="M8 6l-6 6 6 6M16 6l6 6-6 6M14 3l-4 18"/></symbol>
<symbol id="credit-card" viewBox="0 0 24 24" fill="none" stroke="currentColor" stroke-width="2" stroke-linecap="square" stroke-linejoin="miter"><rect x="2" y="5" width="20" height="14" rx="1"/><path d="M2 10h20M6 15h4"/></symbol>
<symbol id="database" viewBox="0 0 24 24" fill="none" stroke="currentColor" stroke-width="2" stroke-linecap="square" stroke-linejoin="miter"><ellipse cx="12" cy="5" rx="9" ry="3"/><path d="M3 5v7c0 1.7 4 3 9 3s9-1.3 9-3V5M3 12v7c0 1.7 4 3 9 3s9-1.3 9-3v-7"/></symbol>
<symbol id="robot" viewBox="0 0 24 24" fill="none" stroke="currentColor" stroke-width="2" stroke-linecap="square" stroke-linejoin="miter"><rect x="4" y="8" width="16" height="12" rx="1"/><circle cx="9" cy="14" r="1" fill="currentColor"/><circle cx="15" cy="14" r="1" fill="currentColor"/><path d="M12 4v4M8 4h8M2 14h2M20 14h2"/></symbol>
<symbol id="shield-halved" viewBox="0 0 24 24" fill="none" stroke="currentColor" stroke-width="2" stroke-linecap="square" stroke-linejoin="miter"><path d="M12 2l9 3v7c0 5-4 9-9 10-5-1-9-5-9-10V5l9-3z"/><path d="M12 2v20"/></symbol>
<symbol id="sitemap" viewBox="0 0 24 24" fill="none" stroke="currentColor" stroke-width="2" stroke-linecap="square" stroke-linejoin="miter"><rect x="9" y="2" width="6" height="5"/><rect x="2" y="17" width="6" height="5"/><rect x="9" y="17" width="6" height="5"/><rect x="16" y="17" width="6" height="5"/><path d="M12 7v5M5 17v-5h14v5"/></symbol>
<!-- Extras kept in sprite for future use -->
<symbol id="bolt" viewBox="0 0 24 24" fill="none" stroke="currentColor" stroke-width="2" stroke-linecap="square" stroke-linejoin="miter"><path d="M13 2L4 14h6l-1 8 9-12h-6l1-8z"/></symbol>
<symbol id="brain" viewBox="0 0 24 24" fill="none" stroke="currentColor" stroke-width="2" stroke-linecap="square" stroke-linejoin="miter"><path d="M12 3a4 4 0 0 0-4 4 3 3 0 0 0-3 3v1a3 3 0 0 0 2 3 3 3 0 0 0 2 3 3 3 0 0 0 3 3 3 3 0 0 0 3-3 3 3 0 0 0 2-3 3 3 0 0 0 2-3v-1a3 3 0 0 0-3-3 4 4 0 0 0-4-4z"/></symbol>
<symbol id="compass" viewBox="0 0 24 24" fill="none" stroke="currentColor" stroke-width="2" stroke-linecap="square" stroke-linejoin="miter"><circle cx="12" cy="12" r="10"/><path d="M16 8l-2 6-6 2 2-6 6-2z"/></symbol>
<symbol id="gauge" viewBox="0 0 24 24" fill="none" stroke="currentColor" stroke-width="2" stroke-linecap="square" stroke-linejoin="miter"><path d="M3 13a9 9 0 1 1 18 0"/><path d="M12 13l4-4"/></symbol>
<symbol id="layer-group" viewBox="0 0 24 24" fill="none" stroke="currentColor" stroke-width="2" stroke-linecap="square" stroke-linejoin="miter"><path d="M12 2L2 7l10 5 10-5-10-5zM2 12l10 5 10-5M2 17l10 5 10-5"/></symbol>
<symbol id="node" viewBox="0 0 24 24" fill="none" stroke="currentColor" stroke-width="2" stroke-linecap="square" stroke-linejoin="miter"><circle cx="5" cy="12" r="3"/><circle cx="19" cy="6" r="3"/><circle cx="19" cy="18" r="3"/><path d="M8 12l8-6M8 12l8 6"/></symbol>
<symbol id="pulse" viewBox="0 0 24 24" fill="none" stroke="currentColor" stroke-width="2" stroke-linecap="square" stroke-linejoin="miter"><path d="M2 12h5l3-8 4 16 3-8h5"/></symbol>
<symbol id="radar" viewBox="0 0 24 24" fill="none" stroke="currentColor" stroke-width="2" stroke-linecap="square" stroke-linejoin="miter"><circle cx="12" cy="12" r="10"/><circle cx="12" cy="12" r="6"/><path d="M12 2v10l7 7"/></symbol>
<symbol id="gear" viewBox="0 0 24 24" fill="none" stroke="currentColor" stroke-width="2" stroke-linecap="square" stroke-linejoin="miter"><circle cx="12" cy="12" r="3"/><path d="M12 2v3M12 19v3M2 12h3M19 12h3M4.9 4.9l2.1 2.1M17 17l2.1 2.1M4.9 19.1L7 17M17 7l2.1-2.1"/></symbol>
<symbol id="target" viewBox="0 0 24 24" fill="none" stroke="currentColor" stroke-width="2" stroke-linecap="square" stroke-linejoin="miter"><circle cx="12" cy="12" r="10"/><circle cx="12" cy="12" r="6"/><circle cx="12" cy="12" r="2" fill="currentColor"/></symbol>
<symbol id="plug" viewBox="0 0 24 24" fill="none" stroke="currentColor" stroke-width="2" stroke-linecap="square" stroke-linejoin="miter"><path d="M12 2v6M8 8h8v4a4 4 0 0 1-8 0V8zM12 16v6"/></symbol>
<symbol id="workflow" viewBox="0 0 24 24" fill="none" stroke="currentColor" stroke-width="2" stroke-linecap="square" stroke-linejoin="miter"><rect x="2" y="3" width="6" height="6"/><rect x="16" y="3" width="6" height="6"/><rect x="2" y="15" width="6" height="6"/><rect x="16" y="15" width="6" height="6"/><path d="M8 6h4a2 2 0 0 1 2 2v8a2 2 0 0 1-2 2H8"/></symbol>
<symbol id="user-group" viewBox="0 0 24 24" fill="none" stroke="currentColor" stroke-width="2" stroke-linecap="square" stroke-linejoin="miter"><circle cx="9" cy="8" r="3"/><circle cx="17" cy="8" r="2.5"/><path d="M3 20v-1a6 6 0 0 1 12 0v1M15 20v-1a5 5 0 0 1 6-4.9"/></symbol>
<symbol id="wallet" viewBox="0 0 24 24" fill="none" stroke="currentColor" stroke-width="2" stroke-linecap="square" stroke-linejoin="miter"><rect x="2" y="6" width="20" height="14" rx="1"/><path d="M17 13h2M2 10h20"/></symbol>
<symbol id="book" viewBox="0 0 24 24" fill="none" stroke="currentColor" stroke-width="2" stroke-linecap="square" stroke-linejoin="miter"><path d="M4 4h11a4 4 0 0 1 4 4v12H8a4 4 0 0 1-4-4V4zM4 16h12"/></symbol>
<symbol id="calendar" viewBox="0 0 24 24" fill="none" stroke="currentColor" stroke-width="2" stroke-linecap="square" stroke-linejoin="miter"><rect x="3" y="5" width="18" height="16"/><path d="M3 10h18M8 3v4M16 3v4"/></symbol>
<symbol id="filter" viewBox="0 0 24 24" fill="none" stroke="currentColor" stroke-width="2" stroke-linecap="square" stroke-linejoin="miter"><path d="M3 4h18l-7 9v6l-4 2v-8L3 4z"/></symbol>
</svg>
